<?xml version="1.0" encoding="UTF-8"?>
<svg width="121.07mm" height="147.98mm" version="1.1" viewBox="0 0 428.99727 524.33078" xmlns="http://www.w3.org/2000/svg">
 <g transform="translate(-157.55 -449.86)">
  <text x="258.57144" y="102.36221" color="#000000" color-rendering="auto" fill="#000000" fill-rule="evenodd" font-family="'Droid Sans Thai'" font-size="15px" image-rendering="auto" shape-rendering="auto" solid-color="#000000" stroke-linejoin="round" stroke-miterlimit="10" stroke-width=".496" text-align="center" text-anchor="middle" text-rendering="auto" style="block-progression:tb;isolation:auto;line-height:normal;mix-blend-mode:normal;text-decoration-color:#000000;text-decoration-line:none;text-decoration-style:solid;text-indent:0;text-transform:none;white-space:normal">
   <tspan x="258.57144" y="102.36221" font-size="50px"/>
  </text>
  <path d="m310.52 449.86c-9.0304 0-16.342 10.519-16.342 19.55v7.7384c0 6.3886 3.685 11.885 9.0112 14.56-0.08 1.0586-0.1532 2.1275-0.1532 3.2074v153.8c-2.4178 4.5548-4.7734 9.2986-7.3312 14l-132.17 239.08c-21.284 39.127 19.219 72.395 43.071 72.395h330.72c23.851 0 64.789-32.472 43.071-72.395l-132.16-239.08c-2.5578-4.7019-4.9134-9.4456-7.3312-14v-153.8c0-1.0798-0.073-2.1487-0.1531-3.2074 5.3262-2.6758 9.0111-8.1719 9.0111-14.56v-7.7384c0-9.0306-7.2608-19.55-16.291-19.55z" stroke-width="25.8"/>
  <g transform="matrix(1.6291 0 0 1.6291 -1413.4 -609.36)" fill="#fff" stroke-width="25.8">
   <path d="m1080.3 768.8h31.307c12.456 0 16.531 11.607 22.483 22.611l70.701 130.71c14.28 26.399-10.028 38.012-22.484 38.012h-172.71c-12.456 0-35.208-14.489-22.483-38.012l70.701-130.71c5.9522-11.004 10.028-22.611 22.483-22.611z"/>
   <rect x="1063.8" y="670.49" width="64.23" height="117.7" ry="0"/>
   <rect transform="rotate(-90)" x="-671.96" y="1058.1" width="13.263" height="75.529" ry="4.3"/>
  </g>
  <path d="m439.24 711.29 91.927 174.75c20.125 38.256-14.442 54.746-32.381 54.746h-248.74c-17.939 0-50.781-20.907-32.381-54.746l90.127-165.75c79.68 31.256 108.66-55.62 131.45-8.999z" fill="#c00" stroke-width="25.8"/>
  <circle cx="353.61" cy="838.32" r="29.696" fill="#fff"/>
  <circle cx="323.54" cy="802.8" r="17.548" fill="#fff"/>
  <circle cx="400.01" cy="768.63" r="10.349" fill="#fff"/>
  <rect x="391.13" y="486.92" width="15.08" height="164.1" ry="7.5399"/>
  <flowRoot color="#000000" color-rendering="auto" fill="#cc0000" fill-opacity="0" fill-rule="evenodd" font-family="'Droid Sans Thai'" font-size="50px" image-rendering="auto" shape-rendering="auto" solid-color="#000000" stroke-linejoin="round" stroke-miterlimit="10" stroke-width=".496" text-align="center" text-anchor="middle" text-rendering="auto" style="block-progression:tb;isolation:auto;line-height:normal;mix-blend-mode:normal;text-decoration-color:#000000;text-decoration-line:none;text-decoration-style:solid;text-indent:0;text-transform:none;white-space:normal">
   <flowRegion>
    <rect x="135.46" y="237.34" width="508.27" height="127.63"/>
   </flowRegion>
   <flowPara/>
  </flowRoot>
 </g>
</svg>
